<?xml version="1.0" encoding="UTF-8" standalone="no"?><svg xmlns="http://www.w3.org/2000/svg" xmlns:xlink="http://www.w3.org/1999/xlink" contentStyleType="text/css" height="561px" preserveAspectRatio="none" style="width:1467px;height:561px;background:#FFFFFF;" version="1.1" viewBox="0 0 1467 561" width="1467px" zoomAndPan="magnify"><defs/><g><!--MD5=[48803c113567f4c023ac76d7a2feeea5]
class Jeux--><g id="elem_Jeux"><rect codeLine="2" fill="#F1F1F1" height="153.6563" id="Jeux" rx="2.5" ry="2.5" style="stroke:#181818;stroke-width:0.5;" width="299" x="434.5" y="7"/><ellipse cx="565.25" cy="23" fill="#A9DCDF" rx="11" ry="11" style="stroke:#181818;stroke-width:1.0;"/><path d="M567.4375,24.7656 L563.2969,24.7656 L562.875,25.7969 L563.2969,25.7969 Q563.9063,25.7969 564.1719,26.0313 Q564.4375,26.2656 564.4375,26.6563 Q564.4375,27.0313 564.1719,27.2656 Q563.9063,27.5 563.2969,27.5 L561,27.5 Q560.3906,27.5 560.1406,27.2656 Q559.875,27.0313 559.875,26.6406 Q559.875,26.2656 560.1563,26.0313 Q560.4219,25.7813 561.0469,25.7969 L563.7188,19.1406 L562.6094,19.1406 Q562,19.1406 561.7344,18.9063 Q561.4688,18.6719 561.4688,18.2813 Q561.4688,17.9063 561.7344,17.6719 Q562,17.4375 562.6094,17.4375 L566.2813,17.4375 L569.6719,25.7969 Q570.2656,25.7969 570.4531,25.9375 Q570.8438,26.2031 570.8438,26.6563 Q570.8438,27.0313 570.5781,27.2656 Q570.3281,27.5 569.7188,27.5 L567.4219,27.5 Q566.8125,27.5 566.5469,27.2656 Q566.2813,27.0313 566.2813,26.6406 Q566.2813,26.2656 566.5469,26.0313 Q566.8125,25.7969 567.4219,25.7969 L567.8438,25.7969 L567.4375,24.7656 Z M566.7188,23.0625 L565.3594,19.6875 L563.9844,23.0625 L566.7188,23.0625 Z " fill="#000000"/><text fill="#000000" font-family="sans-serif" font-size="14" font-style="italic" lengthAdjust="spacing" textLength="29" x="585.75" y="28.7285">Jeux</text><line style="stroke:#181818;stroke-width:0.5;" x1="435.5" x2="732.5" y1="39" y2="39"/><line style="stroke:#181818;stroke-width:0.5;" x1="435.5" x2="732.5" y1="47" y2="47"/><ellipse cx="445.5" cy="61.3047" fill="#84BE84" rx="3" ry="3" style="stroke:#038048;stroke-width:1.0;"/><text fill="#000000" font-family="sans-serif" font-size="14" font-style="italic" lengthAdjust="spacing" textLength="105" x="454.5" y="65.5332">demarrerPartie()</text><ellipse cx="445.5" cy="78.9141" fill="#84BE84" rx="3" ry="3" style="stroke:#038048;stroke-width:1.0;"/><text fill="#000000" font-family="sans-serif" font-size="14" font-style="italic" lengthAdjust="spacing" textLength="269" x="454.5" y="83.1426">demanderAJoueurDeJouer(Joueur joueur)</text><ellipse cx="445.5" cy="96.5234" fill="#84BE84" rx="3" ry="3" style="stroke:#038048;stroke-width:1.0;"/><text fill="#000000" font-family="sans-serif" font-size="14" font-style="italic" lengthAdjust="spacing" textLength="273" x="454.5" y="100.752">initGrilleDeJeu(int ligne, int colonne) : Grille</text><ellipse cx="445.5" cy="114.1328" fill="#84BE84" rx="3" ry="3" style="stroke:#038048;stroke-width:1.0;"/><text fill="#000000" font-family="sans-serif" font-size="14" font-style="italic" lengthAdjust="spacing" textLength="129" x="454.5" y="118.3613">verifierSiVainqueur()</text><text fill="#000000" font-family="sans-serif" font-size="14" lengthAdjust="spacing" textLength="4" x="454.5" y="135.9707"> </text><ellipse cx="445.5" cy="149.3516" fill="#84BE84" rx="3" ry="3" style="stroke:#038048;stroke-width:1.0;"/><text fill="#000000" font-family="sans-serif" font-size="14" lengthAdjust="spacing" textLength="108" x="454.5" y="153.5801">getGrille() : Grille</text></g><!--MD5=[2997ebd943a84e5ab2d9fb75656e0809]
class Morpion--><g id="elem_Morpion"><rect codeLine="11" fill="#F1F1F1" height="153.6563" id="Morpion" rx="2.5" ry="2.5" style="stroke:#181818;stroke-width:0.5;" width="298" x="7" y="256.5"/><ellipse cx="126.25" cy="272.5" fill="#ADD1B2" rx="11" ry="11" style="stroke:#181818;stroke-width:1.0;"/><path d="M129.0156,268.375 Q129.1719,268.1563 129.3594,268.0469 Q129.5469,267.9375 129.7656,267.9375 Q130.1406,267.9375 130.375,268.2031 Q130.6094,268.4531 130.6094,269.0625 L130.6094,270.5156 Q130.6094,271.125 130.375,271.3906 Q130.1406,271.6563 129.7656,271.6563 Q129.4219,271.6563 129.2188,271.4531 Q129.0156,271.2656 128.9063,270.75 Q128.8594,270.3906 128.6719,270.2031 Q128.3438,269.8281 127.7344,269.6094 Q127.125,269.3906 126.5,269.3906 Q125.7344,269.3906 125.0938,269.7188 Q124.4688,270.0469 123.9688,270.7969 Q123.4844,271.5469 123.4844,272.5781 L123.4844,273.6719 Q123.4844,274.9063 124.375,275.7344 Q125.2656,276.5469 126.8594,276.5469 Q127.7969,276.5469 128.4531,276.2969 Q128.8438,276.1406 129.2656,275.7031 Q129.5313,275.4375 129.6719,275.3594 Q129.8281,275.2813 130.0313,275.2813 Q130.3594,275.2813 130.6094,275.5469 Q130.875,275.7969 130.875,276.1406 Q130.875,276.4844 130.5313,276.8906 Q130.0313,277.4688 129.2344,277.7969 Q128.1563,278.25 126.8594,278.25 Q125.3438,278.25 124.1406,277.625 Q123.1563,277.125 122.4688,276.0625 Q121.7813,274.9844 121.7813,273.7031 L121.7813,272.5469 Q121.7813,271.2188 122.3906,270.0781 Q123.0156,268.9219 124.1094,268.3125 Q125.2031,267.6875 126.4375,267.6875 Q127.1719,267.6875 127.8125,267.8594 Q128.4688,268.0156 129.0156,268.375 Z " fill="#000000"/><text fill="#000000" font-family="sans-serif" font-size="14" lengthAdjust="spacing" textLength="51" x="146.75" y="278.2285">Morpion</text><line style="stroke:#181818;stroke-width:0.5;" x1="8" x2="304" y1="288.5" y2="288.5"/><line style="stroke:#181818;stroke-width:0.5;" x1="8" x2="304" y1="296.5" y2="296.5"/><ellipse cx="18" cy="310.8047" fill="#84BE84" rx="3" ry="3" style="stroke:#038048;stroke-width:1.0;"/><text fill="#000000" font-family="sans-serif" font-size="14" lengthAdjust="spacing" textLength="259" x="27" y="315.0332">Morpion(Joueur joueur1, Joueur joueur2)</text><text fill="#000000" font-family="sans-serif" font-size="14" lengthAdjust="spacing" textLength="4" x="27" y="332.6426"> </text><ellipse cx="18" cy="346.0234" fill="#84BE84" rx="3" ry="3" style="stroke:#038048;stroke-width:1.0;"/><text fill="#000000" font-family="sans-serif" font-size="14" lengthAdjust="spacing" textLength="105" x="27" y="350.252">demarrerPartie()</text><ellipse cx="18" cy="363.6328" fill="#84BE84" rx="3" ry="3" style="stroke:#038048;stroke-width:1.0;"/><text fill="#000000" font-family="sans-serif" font-size="14" lengthAdjust="spacing" textLength="266" x="27" y="367.8613">demanderAJoueurDeJouer(Joueur joueur)</text><ellipse cx="18" cy="381.2422" fill="#84BE84" rx="3" ry="3" style="stroke:#038048;stroke-width:1.0;"/><text fill="#000000" font-family="sans-serif" font-size="14" lengthAdjust="spacing" textLength="272" x="27" y="385.4707">initGrilleDeJeu(int ligne, int colonne) : Grille</text><ellipse cx="18" cy="398.8516" fill="#84BE84" rx="3" ry="3" style="stroke:#038048;stroke-width:1.0;"/><text fill="#000000" font-family="sans-serif" font-size="14" lengthAdjust="spacing" textLength="130" x="27" y="403.0801">verifierSiVainqueur()</text></g><!--MD5=[72776c78c9231cd87896e9595a1b03c9]
class Puissane4--><g id="elem_Puissane4"><rect codeLine="20" fill="#F1F1F1" height="153.6563" id="Puissane4" rx="2.5" ry="2.5" style="stroke:#181818;stroke-width:0.5;" width="300" x="340" y="256.5"/><ellipse cx="452.75" cy="272.5" fill="#ADD1B2" rx="11" ry="11" style="stroke:#181818;stroke-width:1.0;"/><path d="M455.5156,268.375 Q455.6719,268.1563 455.8594,268.0469 Q456.0469,267.9375 456.2656,267.9375 Q456.6406,267.9375 456.875,268.2031 Q457.1094,268.4531 457.1094,269.0625 L457.1094,270.5156 Q457.1094,271.125 456.875,271.3906 Q456.6406,271.6563 456.2656,271.6563 Q455.9219,271.6563 455.7188,271.4531 Q455.5156,271.2656 455.4063,270.75 Q455.3594,270.3906 455.1719,270.2031 Q454.8438,269.8281 454.2344,269.6094 Q453.625,269.3906 453,269.3906 Q452.2344,269.3906 451.5938,269.7188 Q450.9688,270.0469 450.4688,270.7969 Q449.9844,271.5469 449.9844,272.5781 L449.9844,273.6719 Q449.9844,274.9063 450.875,275.7344 Q451.7656,276.5469 453.3594,276.5469 Q454.2969,276.5469 454.9531,276.2969 Q455.3438,276.1406 455.7656,275.7031 Q456.0313,275.4375 456.1719,275.3594 Q456.3281,275.2813 456.5313,275.2813 Q456.8594,275.2813 457.1094,275.5469 Q457.375,275.7969 457.375,276.1406 Q457.375,276.4844 457.0313,276.8906 Q456.5313,277.4688 455.7344,277.7969 Q454.6563,278.25 453.3594,278.25 Q451.8438,278.25 450.6406,277.625 Q449.6563,277.125 448.9688,276.0625 Q448.2813,274.9844 448.2813,273.7031 L448.2813,272.5469 Q448.2813,271.2188 448.8906,270.0781 Q449.5156,268.9219 450.6094,268.3125 Q451.7031,267.6875 452.9375,267.6875 Q453.6719,267.6875 454.3125,267.8594 Q454.9688,268.0156 455.5156,268.375 Z " fill="#000000"/><text fill="#000000" font-family="sans-serif" font-size="14" lengthAdjust="spacing" textLength="66" x="473.25" y="278.2285">Puissane4</text><line style="stroke:#181818;stroke-width:0.5;" x1="341" x2="639" y1="288.5" y2="288.5"/><line style="stroke:#181818;stroke-width:0.5;" x1="341" x2="639" y1="296.5" y2="296.5"/><ellipse cx="351" cy="310.8047" fill="#84BE84" rx="3" ry="3" style="stroke:#038048;stroke-width:1.0;"/><text fill="#000000" font-family="sans-serif" font-size="14" lengthAdjust="spacing" textLength="274" x="360" y="315.0332">Puissane4(Joueur joueur1, Joueur joueur2)</text><text fill="#000000" font-family="sans-serif" font-size="14" lengthAdjust="spacing" textLength="4" x="360" y="332.6426"> </text><ellipse cx="351" cy="346.0234" fill="#84BE84" rx="3" ry="3" style="stroke:#038048;stroke-width:1.0;"/><text fill="#000000" font-family="sans-serif" font-size="14" lengthAdjust="spacing" textLength="105" x="360" y="350.252">demarrerPartie()</text><ellipse cx="351" cy="363.6328" fill="#84BE84" rx="3" ry="3" style="stroke:#038048;stroke-width:1.0;"/><text fill="#000000" font-family="sans-serif" font-size="14" lengthAdjust="spacing" textLength="266" x="360" y="367.8613">demanderAJoueurDeJouer(Joueur joueur)</text><ellipse cx="351" cy="381.2422" fill="#84BE84" rx="3" ry="3" style="stroke:#038048;stroke-width:1.0;"/><text fill="#000000" font-family="sans-serif" font-size="14" lengthAdjust="spacing" textLength="272" x="360" y="385.4707">initGrilleDeJeu(int ligne, int colonne) : Grille</text><ellipse cx="351" cy="398.8516" fill="#84BE84" rx="3" ry="3" style="stroke:#038048;stroke-width:1.0;"/><text fill="#000000" font-family="sans-serif" font-size="14" lengthAdjust="spacing" textLength="130" x="360" y="403.0801">verifierSiVainqueur()</text></g><!--MD5=[f35b8d93951ba498799a84be5600c0ca]
class Joueur--><g id="elem_Joueur"><rect codeLine="29" fill="#F1F1F1" height="100.8281" id="Joueur" rx="2.5" ry="2.5" style="stroke:#181818;stroke-width:0.5;" width="268" x="675" y="283"/><ellipse cx="782.75" cy="299" fill="#A9DCDF" rx="11" ry="11" style="stroke:#181818;stroke-width:1.0;"/><path d="M784.9375,300.7656 L780.7969,300.7656 L780.375,301.7969 L780.7969,301.7969 Q781.4063,301.7969 781.6719,302.0313 Q781.9375,302.2656 781.9375,302.6563 Q781.9375,303.0313 781.6719,303.2656 Q781.4063,303.5 780.7969,303.5 L778.5,303.5 Q777.8906,303.5 777.6406,303.2656 Q777.375,303.0313 777.375,302.6406 Q777.375,302.2656 777.6563,302.0313 Q777.9219,301.7813 778.5469,301.7969 L781.2188,295.1406 L780.1094,295.1406 Q779.5,295.1406 779.2344,294.9063 Q778.9688,294.6719 778.9688,294.2813 Q778.9688,293.9063 779.2344,293.6719 Q779.5,293.4375 780.1094,293.4375 L783.7813,293.4375 L787.1719,301.7969 Q787.7656,301.7969 787.9531,301.9375 Q788.3438,302.2031 788.3438,302.6563 Q788.3438,303.0313 788.0781,303.2656 Q787.8281,303.5 787.2188,303.5 L784.9219,303.5 Q784.3125,303.5 784.0469,303.2656 Q783.7813,303.0313 783.7813,302.6406 Q783.7813,302.2656 784.0469,302.0313 Q784.3125,301.7969 784.9219,301.7969 L785.3438,301.7969 L784.9375,300.7656 Z M784.2188,299.0625 L782.8594,295.6875 L781.4844,299.0625 L784.2188,299.0625 Z " fill="#000000"/><text fill="#000000" font-family="sans-serif" font-size="14" font-style="italic" lengthAdjust="spacing" textLength="44" x="803.25" y="304.7285">Joueur</text><line style="stroke:#181818;stroke-width:0.5;" x1="676" x2="942" y1="315" y2="315"/><rect fill="none" height="6" style="stroke:#C82930;stroke-width:1.0;" width="6" x="683" y="326.3047"/><text fill="#000000" font-family="sans-serif" font-size="14" lengthAdjust="spacing" textLength="47" x="695" y="333.5332">pseudo</text><line style="stroke:#181818;stroke-width:0.5;" x1="676" x2="942" y1="340.6094" y2="340.6094"/><ellipse cx="686" cy="354.9141" fill="#84BE84" rx="3" ry="3" style="stroke:#038048;stroke-width:1.0;"/><text fill="#000000" font-family="sans-serif" font-size="14" lengthAdjust="spacing" textLength="125" x="695" y="359.1426">getPseudo() : string</text><ellipse cx="686" cy="372.5234" fill="#84BE84" rx="3" ry="3" style="stroke:#038048;stroke-width:1.0;"/><text fill="#000000" font-family="sans-serif" font-size="14" font-style="italic" lengthAdjust="spacing" textLength="242" x="695" y="376.752">jouer(List&lt;Pion&gt; pionsPossibles): Pion</text></g><!--MD5=[9b53877fb397e10ea0a6c0fabab4d611]
class Humain--><g id="elem_Humain"><rect codeLine="35" fill="#F1F1F1" height="65.6094" id="HUMAIN_PLAYER" rx="2.5" ry="2.5" style="stroke:#181818;stroke-width:0.5;" width="272" x="519" y="489"/><ellipse cx="627.25" cy="505" fill="#ADD1B2" rx="11" ry="11" style="stroke:#181818;stroke-width:1.0;"/><path d="M630.0156,500.875 Q630.1719,500.6563 630.3594,500.5469 Q630.5469,500.4375 630.7656,500.4375 Q631.1406,500.4375 631.375,500.7031 Q631.6094,500.9531 631.6094,501.5625 L631.6094,503.0156 Q631.6094,503.625 631.375,503.8906 Q631.1406,504.1563 630.7656,504.1563 Q630.4219,504.1563 630.2188,503.9531 Q630.0156,503.7656 629.9063,503.25 Q629.8594,502.8906 629.6719,502.7031 Q629.3438,502.3281 628.7344,502.1094 Q628.125,501.8906 627.5,501.8906 Q626.7344,501.8906 626.0938,502.2188 Q625.4688,502.5469 624.9688,503.2969 Q624.4844,504.0469 624.4844,505.0781 L624.4844,506.1719 Q624.4844,507.4063 625.375,508.2344 Q626.2656,509.0469 627.8594,509.0469 Q628.7969,509.0469 629.4531,508.7969 Q629.8438,508.6406 630.2656,508.2031 Q630.5313,507.9375 630.6719,507.8594 Q630.8281,507.7813 631.0313,507.7813 Q631.3594,507.7813 631.6094,508.0469 Q631.875,508.2969 631.875,508.6406 Q631.875,508.9844 631.5313,509.3906 Q631.0313,509.9688 630.2344,510.2969 Q629.1563,510.75 627.8594,510.75 Q626.3438,510.75 625.1406,510.125 Q624.1563,509.625 623.4688,508.5625 Q622.7813,507.4844 622.7813,506.2031 L622.7813,505.0469 Q622.7813,503.7188 623.3906,502.5781 Q624.0156,501.4219 625.1094,500.8125 Q626.2031,500.1875 627.4375,500.1875 Q628.1719,500.1875 628.8125,500.3594 Q629.4688,500.5156 630.0156,500.875 Z " fill="#000000"/><text fill="#000000" font-family="sans-serif" font-size="14" lengthAdjust="spacing" textLength="47" x="647.75" y="510.7285">HUMAIN_PLAYER</text><line style="stroke:#181818;stroke-width:0.5;" x1="520" x2="790" y1="521" y2="521"/><line style="stroke:#181818;stroke-width:0.5;" x1="520" x2="790" y1="529" y2="529"/><ellipse cx="530" cy="543.3047" fill="#84BE84" rx="3" ry="3" style="stroke:#038048;stroke-width:1.0;"/><text fill="#000000" font-family="sans-serif" font-size="14" lengthAdjust="spacing" textLength="246" x="539" y="547.5332">jouer(List&lt;Pion&gt; pionsPossibles) : Pion</text></g><!--MD5=[d924dfdf68099e9540f3e81f965a0f3b]
class IA--><g id="elem_IA"><rect codeLine="39" fill="#F1F1F1" height="65.6094" id="IA" rx="2.5" ry="2.5" style="stroke:#181818;stroke-width:0.5;" width="272" x="826" y="489"/><ellipse cx="951.75" cy="505" fill="#ADD1B2" rx="11" ry="11" style="stroke:#181818;stroke-width:1.0;"/><path d="M954.5156,500.875 Q954.6719,500.6563 954.8594,500.5469 Q955.0469,500.4375 955.2656,500.4375 Q955.6406,500.4375 955.875,500.7031 Q956.1094,500.9531 956.1094,501.5625 L956.1094,503.0156 Q956.1094,503.625 955.875,503.8906 Q955.6406,504.1563 955.2656,504.1563 Q954.9219,504.1563 954.7188,503.9531 Q954.5156,503.7656 954.4063,503.25 Q954.3594,502.8906 954.1719,502.7031 Q953.8438,502.3281 953.2344,502.1094 Q952.625,501.8906 952,501.8906 Q951.2344,501.8906 950.5938,502.2188 Q949.9688,502.5469 949.4688,503.2969 Q948.9844,504.0469 948.9844,505.0781 L948.9844,506.1719 Q948.9844,507.4063 949.875,508.2344 Q950.7656,509.0469 952.3594,509.0469 Q953.2969,509.0469 953.9531,508.7969 Q954.3438,508.6406 954.7656,508.2031 Q955.0313,507.9375 955.1719,507.8594 Q955.3281,507.7813 955.5313,507.7813 Q955.8594,507.7813 956.1094,508.0469 Q956.375,508.2969 956.375,508.6406 Q956.375,508.9844 956.0313,509.3906 Q955.5313,509.9688 954.7344,510.2969 Q953.6563,510.75 952.3594,510.75 Q950.8438,510.75 949.6406,510.125 Q948.6563,509.625 947.9688,508.5625 Q947.2813,507.4844 947.2813,506.2031 L947.2813,505.0469 Q947.2813,503.7188 947.8906,502.5781 Q948.5156,501.4219 949.6094,500.8125 Q950.7031,500.1875 951.9375,500.1875 Q952.6719,500.1875 953.3125,500.3594 Q953.9688,500.5156 954.5156,500.875 Z " fill="#000000"/><text fill="#000000" font-family="sans-serif" font-size="14" lengthAdjust="spacing" textLength="12" x="972.25" y="510.7285">IA</text><line style="stroke:#181818;stroke-width:0.5;" x1="827" x2="1097" y1="521" y2="521"/><line style="stroke:#181818;stroke-width:0.5;" x1="827" x2="1097" y1="529" y2="529"/><ellipse cx="837" cy="543.3047" fill="#84BE84" rx="3" ry="3" style="stroke:#038048;stroke-width:1.0;"/><text fill="#000000" font-family="sans-serif" font-size="14" lengthAdjust="spacing" textLength="246" x="846" y="547.5332">jouer(List&lt;Pion&gt; pionsPossibles) : Pion</text></g><!--MD5=[a6b47dd42c1ad448e16844461e7657f4]
class Grille--><g id="elem_Grille"><rect codeLine="43" fill="#F1F1F1" height="188.875" id="Grille" rx="2.5" ry="2.5" style="stroke:#181818;stroke-width:0.5;" width="482" x="978" y="239"/><ellipse cx="1198.25" cy="255" fill="#ADD1B2" rx="11" ry="11" style="stroke:#181818;stroke-width:1.0;"/><path d="M1201.0156,250.875 Q1201.1719,250.6563 1201.3594,250.5469 Q1201.5469,250.4375 1201.7656,250.4375 Q1202.1406,250.4375 1202.375,250.7031 Q1202.6094,250.9531 1202.6094,251.5625 L1202.6094,253.0156 Q1202.6094,253.625 1202.375,253.8906 Q1202.1406,254.1563 1201.7656,254.1563 Q1201.4219,254.1563 1201.2188,253.9531 Q1201.0156,253.7656 1200.9063,253.25 Q1200.8594,252.8906 1200.6719,252.7031 Q1200.3438,252.3281 1199.7344,252.1094 Q1199.125,251.8906 1198.5,251.8906 Q1197.7344,251.8906 1197.0938,252.2188 Q1196.4688,252.5469 1195.9688,253.2969 Q1195.4844,254.0469 1195.4844,255.0781 L1195.4844,256.1719 Q1195.4844,257.4063 1196.375,258.2344 Q1197.2656,259.0469 1198.8594,259.0469 Q1199.7969,259.0469 1200.4531,258.7969 Q1200.8438,258.6406 1201.2656,258.2031 Q1201.5313,257.9375 1201.6719,257.8594 Q1201.8281,257.7813 1202.0313,257.7813 Q1202.3594,257.7813 1202.6094,258.0469 Q1202.875,258.2969 1202.875,258.6406 Q1202.875,258.9844 1202.5313,259.3906 Q1202.0313,259.9688 1201.2344,260.2969 Q1200.1563,260.75 1198.8594,260.75 Q1197.3438,260.75 1196.1406,260.125 Q1195.1563,259.625 1194.4688,258.5625 Q1193.7813,257.4844 1193.7813,256.2031 L1193.7813,255.0469 Q1193.7813,253.7188 1194.3906,252.5781 Q1195.0156,251.4219 1196.1094,250.8125 Q1197.2031,250.1875 1198.4375,250.1875 Q1199.1719,250.1875 1199.8125,250.3594 Q1200.4688,250.5156 1201.0156,250.875 Z " fill="#000000"/><text fill="#000000" font-family="sans-serif" font-size="14" lengthAdjust="spacing" textLength="33" x="1218.75" y="260.7285">Grille</text><line style="stroke:#181818;stroke-width:0.5;" x1="979" x2="1459" y1="271" y2="271"/><rect fill="none" height="6" style="stroke:#C82930;stroke-width:1.0;" width="6" x="986" y="282.3047"/><text fill="#000000" font-family="sans-serif" font-size="14" lengthAdjust="spacing" textLength="85" x="998" y="289.5332">nbLignes : int</text><rect fill="none" height="6" style="stroke:#C82930;stroke-width:1.0;" width="6" x="986" y="299.9141"/><text fill="#000000" font-family="sans-serif" font-size="14" lengthAdjust="spacing" textLength="103" x="998" y="307.1426">nbColonnes : int</text><rect fill="none" height="6" style="stroke:#C82930;stroke-width:1.0;" width="6" x="986" y="317.5234"/><text fill="#000000" font-family="sans-serif" font-size="14" lengthAdjust="spacing" textLength="211" x="998" y="324.752">grille : int [nbLignes][nbColonnes]</text><rect fill="none" height="6" style="stroke:#C82930;stroke-width:1.0;" width="6" x="986" y="335.1328"/><text fill="#000000" font-family="sans-serif" font-size="14" lengthAdjust="spacing" textLength="456" x="998" y="342.3613">pionsJouees : HashMap&lt;string pseudoJoueur, List&lt;Pion&gt; coordonnees&gt;</text><line style="stroke:#181818;stroke-width:0.5;" x1="979" x2="1459" y1="349.4375" y2="349.4375"/><ellipse cx="989" cy="363.7422" fill="#84BE84" rx="3" ry="3" style="stroke:#038048;stroke-width:1.0;"/><text fill="#000000" font-family="sans-serif" font-size="14" lengthAdjust="spacing" textLength="239" x="998" y="367.9707">getEmplacementsLibres() : List&lt;Pion&gt;</text><ellipse cx="989" cy="381.3516" fill="#84BE84" rx="3" ry="3" style="stroke:#038048;stroke-width:1.0;"/><text fill="#000000" font-family="sans-serif" font-size="14" lengthAdjust="spacing" textLength="245" x="998" y="385.5801">getEmplacementsJouees() : List&lt;Pion&gt;</text><ellipse cx="989" cy="398.9609" fill="#84BE84" rx="3" ry="3" style="stroke:#038048;stroke-width:1.0;"/><text fill="#000000" font-family="sans-serif" font-size="14" lengthAdjust="spacing" textLength="123" x="998" y="403.1895">afficheGrille() : void</text><ellipse cx="989" cy="416.5703" fill="#84BE84" rx="3" ry="3" style="stroke:#038048;stroke-width:1.0;"/><text fill="#000000" font-family="sans-serif" font-size="14" lengthAdjust="spacing" textLength="307" x="998" y="420.7988">ajouterPionGrille(Joueur joueur, Pion pion) : void</text></g><!--MD5=[dea57a83e9ee1ba5bfca82940a28bec5]
reverse link Joueur to Humain--><g id="link_Joueur_Humain"><path codeLine="55" d="M754.76,400.19 C729.95,430.23 701.69,464.46 681.59,488.8 " fill="none" id="Joueur-backto-HUMAIN_PLAYER" style="stroke:#181818;stroke-width:1.0;stroke-dasharray:7.0,7.0;"/><polygon fill="none" points="749.6,395.44,767.73,384.48,760.39,404.36,749.6,395.44" style="stroke:#181818;stroke-width:1.0;"/></g><!--MD5=[aa3c9272db300581599b86745e9cfd68]
reverse link Joueur to IA--><g id="link_Joueur_IA"><path codeLine="56" d="M862.89,400.19 C887.53,430.23 915.62,464.46 935.58,488.8 " fill="none" id="Joueur-backto-IA" style="stroke:#181818;stroke-width:1.0;stroke-dasharray:7.0,7.0;"/><polygon fill="none" points="857.27,404.38,850,384.48,868.1,395.5,857.27,404.38" style="stroke:#181818;stroke-width:1.0;"/></g><!--MD5=[06c10e4ed337fc61281c93e6c1b03af9]
reverse link Jeux to Joueur--><g id="link_Jeux_Joueur"><path codeLine="57" d="M662.31,171.14 C696.19,208.41 734.64,250.7 763.67,282.64 " fill="none" id="Jeux-backto-Joueur" style="stroke:#181818;stroke-width:1.0;"/><polygon fill="none" points="653.34,161.28,654.4173,168.4102,661.4134,170.1581,660.3361,163.0279,653.34,161.28" style="stroke:#181818;stroke-width:1.0;"/><text fill="#000000" font-family="sans-serif" font-size="13" lengthAdjust="spacing" textLength="121" x="698" y="205.4951">List&lt;Joueur&gt; joueurs</text><text fill="#000000" font-family="sans-serif" font-size="13" lengthAdjust="spacing" textLength="7" x="643.6544" y="182.1337">1</text><text fill="#000000" font-family="sans-serif" font-size="13" lengthAdjust="spacing" textLength="7" x="741.571" y="272.261">2</text></g><!--MD5=[6cec0079630c8e57ec1b27f4de96995e]
reverse link Jeux to Grille--><g id="link_Jeux_Grille"><path codeLine="58" d="M745.83,148.08 C816.63,175.67 901.17,208.62 979.06,238.98 " fill="none" id="Jeux-backto-Grille" style="stroke:#181818;stroke-width:1.0;"/><polygon fill="#181818" points="733.68,143.34,737.8149,149.2479,744.8586,147.7033,740.7238,141.7955,733.68,143.34" style="stroke:#181818;stroke-width:1.0;"/><text fill="#000000" font-family="sans-serif" font-size="13" lengthAdjust="spacing" textLength="63" x="903" y="205.4951">grilleDeJeu</text><text fill="#000000" font-family="sans-serif" font-size="13" lengthAdjust="spacing" textLength="7" x="741.2934" y="143.3387">1</text><text fill="#000000" font-family="sans-serif" font-size="13" lengthAdjust="spacing" textLength="7" x="955.1676" y="232.7994">1</text></g><!--MD5=[f678681f6342e4b648f177a8e334d219]
reverse link Jeux to Morpion--><g id="link_Jeux_Morpion"><path codeLine="59" d="M434.96,171.19 C387.01,198.92 334.25,229.42 287.64,256.38 " fill="none" id="Jeux-backto-Morpion" style="stroke:#181818;stroke-width:1.0;stroke-dasharray:7.0,7.0;"/><polygon fill="none" points="431.57,165.06,452.39,161.11,438.58,177.18,431.57,165.06" style="stroke:#181818;stroke-width:1.0;"/></g><!--MD5=[50504af743d823312571700664175aa1]
reverse link Jeux to Puissane4--><g id="link_Jeux_Puissane4"><path codeLine="60" d="M547.85,180.19 C538.25,205.45 528.02,232.39 518.87,256.47 " fill="none" id="Jeux-backto-Puissane4" style="stroke:#181818;stroke-width:1.0;stroke-dasharray:7.0,7.0;"/><polygon fill="none" points="541.38,177.49,555.03,161.28,554.47,182.46,541.38,177.49" style="stroke:#181818;stroke-width:1.0;"/></g><!--MD5=[fc313b8b63ff1ea2fc8b620bcd35f763]
@startuml TP3

abstract class Jeux {
  {abstract} + demarrerPartie()
  {abstract} + demanderAJoueurDeJouer(Joueur joueur)
  {abstract} + initGrilleDeJeu(int ligne, int colonne) : Grille
  {abstract} + verifierSiVainqueur()

  + getGrille() : Grille
}

class Morpion {
  + Morpion(Joueur joueur1, Joueur joueur2)
  
  + demarrerPartie()
  + demanderAJoueurDeJouer(Joueur joueur)
  + initGrilleDeJeu(int ligne, int colonne) : Grille
  + verifierSiVainqueur()
}

class Puissane4 {
  + Puissane4(Joueur joueur1, Joueur joueur2)
  
  + demarrerPartie()
  + demanderAJoueurDeJouer(Joueur joueur)
  + initGrilleDeJeu(int ligne, int colonne) : Grille
  + verifierSiVainqueur()
}

abstract class Joueur {
  - pseudo
  + getPseudo() : string
  {abstract} + jouer(List<Pion> pionsPossibles): Pion
}

class Humain {
  + jouer(List<Pion> pionsPossibles) : Pion
}

class IA {
  + jouer(List<Pion> pionsPossibles) : Pion
}

class Grille {
  - nbLignes : int
  - nbColonnes : int
  - grille : int [nbLignes][nbColonnes]
  - pionsJouees : HashMap<string pseudoJoueur, List<Pion> coordonnees>
  
  + getEmplacementsLibres() : List<Pion>
  + getEmplacementsJouees() : List<Pion>
  + afficheGrille() : void
  + ajouterPionGrille(Joueur joueur, Pion pion) : void
}

Joueur <|.. Humain
Joueur <|.. IA
Jeux "1  " o- - "2  " Joueur : List<Joueur> joueurs
Jeux "1  " *- - "1  " Grille : grilleDeJeu
Jeux <|.. Morpion
Jeux <|.. Puissane4
@enduml

PlantUML version 1.2022.7(Mon Aug 22 19:01:30 CEST 2022)
(GPL source distribution)
Java Runtime: Java(TM) SE Runtime Environment
JVM: Java HotSpot(TM) 64-Bit Server VM
Default Encoding: UTF-8
Language: fr
Country: FR
--></g></svg>